<svg data-loc="client/src/components/AINewsLogo.tsx:10" width="455" height="130" viewBox="0 0 455 130" xmlns="http://www.w3.org/2000/svg"><defs data-loc="client/src/components/AINewsLogo.tsx:11"><linearGradient data-loc="client/src/components/AINewsLogo.tsx:12" id="gradient-dark" x1="0%" y1="0%" x2="100%" y2="100%"><stop data-loc="client/src/components/AINewsLogo.tsx:13" offset="0%" style="stop-color: rgb(37, 99, 235); stop-opacity: 1;"></stop><stop data-loc="client/src/components/AINewsLogo.tsx:14" offset="100%" style="stop-color: rgb(124, 58, 237); stop-opacity: 1;"></stop></linearGradient></defs><g data-loc="client/src/components/AINewsLogo.tsx:19" transform="translate(15, 25)"><circle data-loc="client/src/components/AINewsLogo.tsx:21" cx="40" cy="40" r="35" fill="url(#gradient-dark)" opacity="0.1"></circle><path data-loc="client/src/components/AINewsLogo.tsx:22" d="M 40 15 L 40 25 M 40 55 L 40 65 M 15 40 L 25 40 M 55 40 L 65 40" stroke="url(#gradient-dark)" stroke-width="3" stroke-linecap="round"></path><circle data-loc="client/src/components/AINewsLogo.tsx:24" cx="40" cy="40" r="12" fill="url(#gradient-dark)"></circle><circle data-loc="client/src/components/AINewsLogo.tsx:25" cx="40" cy="25" r="4" fill="url(#gradient-dark)"></circle><circle data-loc="client/src/components/AINewsLogo.tsx:26" cx="40" cy="55" r="4" fill="url(#gradient-dark)"></circle><circle data-loc="client/src/components/AINewsLogo.tsx:27" cx="25" cy="40" r="4" fill="url(#gradient-dark)"></circle><circle data-loc="client/src/components/AINewsLogo.tsx:28" cx="55" cy="40" r="4" fill="url(#gradient-dark)"></circle><path data-loc="client/src/components/AINewsLogo.tsx:31" d="M 40 40 L 25 25 M 40 40 L 55 25 M 40 40 L 25 55 M 40 40 L 55 55" stroke="url(#gradient-dark)" stroke-width="2" opacity="0.4"></path><circle data-loc="client/src/components/AINewsLogo.tsx:33" cx="25" cy="25" r="3" fill="url(#gradient-dark)" opacity="0.6"></circle><circle data-loc="client/src/components/AINewsLogo.tsx:34" cx="55" cy="25" r="3" fill="url(#gradient-dark)" opacity="0.6"></circle><circle data-loc="client/src/components/AINewsLogo.tsx:35" cx="25" cy="55" r="3" fill="url(#gradient-dark)" opacity="0.6"></circle><circle data-loc="client/src/components/AINewsLogo.tsx:36" cx="55" cy="55" r="3" fill="url(#gradient-dark)" opacity="0.6"></circle></g><text data-loc="client/src/components/AINewsLogo.tsx:40" x="110" y="55" font-family="Arial, sans-serif" font-size="36" font-weight="bold" fill="#1e293b">AI资讯日报</text><text data-loc="client/src/components/AINewsLogo.tsx:43" x="110" y="85" font-family="Arial, sans-serif" font-size="16" fill="#64748b" letter-spacing="1">AI News Daily</text></svg>