<svg data-loc="client/src/components/AINewsLogo.tsx:48" width="455" height="130" viewBox="0 0 455 130" xmlns="http://www.w3.org/2000/svg"><defs data-loc="client/src/components/AINewsLogo.tsx:49"><linearGradient data-loc="client/src/components/AINewsLogo.tsx:50" id="gradient-light" x1="0%" y1="0%" x2="100%" y2="100%"><stop data-loc="client/src/components/AINewsLogo.tsx:51" offset="0%" style="stop-color: rgb(96, 165, 250); stop-opacity: 1;"></stop><stop data-loc="client/src/components/AINewsLogo.tsx:52" offset="100%" style="stop-color: rgb(167, 139, 250); stop-opacity: 1;"></stop></linearGradient></defs><g data-loc="client/src/components/AINewsLogo.tsx:57" transform="translate(15, 25)"><circle data-loc="client/src/components/AINewsLogo.tsx:59" cx="40" cy="40" r="35" fill="url(#gradient-light)" opacity="0.15"></circle><path data-loc="client/src/components/AINewsLogo.tsx:60" d="M 40 15 L 40 25 M 40 55 L 40 65 M 15 40 L 25 40 M 55 40 L 65 40" stroke="url(#gradient-light)" stroke-width="3" stroke-linecap="round"></path><circle data-loc="client/src/components/AINewsLogo.tsx:62" cx="40" cy="40" r="12" fill="url(#gradient-light)"></circle><circle data-loc="client/src/components/AINewsLogo.tsx:63" cx="40" cy="25" r="4" fill="url(#gradient-light)"></circle><circle data-loc="client/src/components/AINewsLogo.tsx:64" cx="40" cy="55" r="4" fill="url(#gradient-light)"></circle><circle data-loc="client/src/components/AINewsLogo.tsx:65" cx="25" cy="40" r="4" fill="url(#gradient-light)"></circle><circle data-loc="client/src/components/AINewsLogo.tsx:66" cx="55" cy="40" r="4" fill="url(#gradient-light)"></circle><path data-loc="client/src/components/AINewsLogo.tsx:69" d="M 40 40 L 25 25 M 40 40 L 55 25 M 40 40 L 25 55 M 40 40 L 55 55" stroke="url(#gradient-light)" stroke-width="2" opacity="0.5"></path><circle data-loc="client/src/components/AINewsLogo.tsx:71" cx="25" cy="25" r="3" fill="url(#gradient-light)" opacity="0.7"></circle><circle data-loc="client/src/components/AINewsLogo.tsx:72" cx="55" cy="25" r="3" fill="url(#gradient-light)" opacity="0.7"></circle><circle data-loc="client/src/components/AINewsLogo.tsx:73" cx="25" cy="55" r="3" fill="url(#gradient-light)" opacity="0.7"></circle><circle data-loc="client/src/components/AINewsLogo.tsx:74" cx="55" cy="55" r="3" fill="url(#gradient-light)" opacity="0.7"></circle></g><text data-loc="client/src/components/AINewsLogo.tsx:78" x="110" y="65" font-family="Arial, sans-serif" font-size="36" font-weight="bold" fill="#f1f5f9" dominant-baseline="middle">AI资讯日报</text></svg>